<svg xmlns="http://www.w3.org/2000/svg" viewBox="0 0 1920 1080"><g transform="
          rotate(0 960 540) 
          translate(-0 -0)
          scale(1)
        "><rect width="1920" height="1080" fill="rgb(26, 26, 26)"></rect><g transform="translate(0, 0)"><path fill="rgb(21, 21, 21)" fill-opacity="1" d="M0,211.766L64,210.045C128,208.324,256,204.882,384,204.349C512,203.815,640,206.19,768,206.457C896,206.724,1024,204.883,1152,181.91C1280,158.936,1408,114.83,1536,111.105C1664,107.38,1792,144.036,1856,162.364L1920,180.693L1920,1080L1856,1080C1792,1080,1664,1080,1536,1080C1408,1080,1280,1080,1152,1080C1024,1080,896,1080,768,1080C640,1080,512,1080,384,1080C256,1080,128,1080,64,1080L0,1080Z"></path></g><g transform="translate(0, 216)"><path fill="rgb(16, 16, 16)" fill-opacity="1" d="M0,3.316L64,29.525C128,55.735,256,108.155,384,121.211C512,134.268,640,107.962,768,83.613C896,59.265,1024,36.873,1152,48.431C1280,59.99,1408,105.497,1536,113.703C1664,121.909,1792,92.812,1856,78.264L1920,63.715L1920,864L1856,864C1792,864,1664,864,1536,864C1408,864,1280,864,1152,864C1024,864,896,864,768,864C640,864,512,864,384,864C256,864,128,864,64,864L0,864Z"></path></g><g transform="translate(0, 432)"><path fill="rgb(10, 10, 10)" fill-opacity="1" d="M0,63.624L64,84.749C128,105.875,256,148.126,384,170.818C512,193.51,640,196.643,768,170.805C896,144.967,1024,90.158,1152,67.574C1280,44.99,1408,54.631,1536,75.764C1664,96.896,1792,129.519,1856,145.831L1920,162.143L1920,648L1856,648C1792,648,1664,648,1536,648C1408,648,1280,648,1152,648C1024,648,896,648,768,648C640,648,512,648,384,648C256,648,128,648,64,648L0,648Z"></path></g><g transform="translate(0, 648)"><path fill="rgb(5, 5, 5)" fill-opacity="1" d="M0,202.744L64,187.075C128,171.407,256,140.071,384,108.188C512,76.304,640,43.874,768,26.019C896,8.164,1024,4.885,1152,24.647C1280,44.41,1408,87.215,1536,100.669C1664,114.124,1792,98.228,1856,90.28L1920,82.332L1920,432L1856,432C1792,432,1664,432,1536,432C1408,432,1280,432,1152,432C1024,432,896,432,768,432C640,432,512,432,384,432C256,432,128,432,64,432L0,432Z"></path></g><g transform="translate(0, 864)"><path fill="rgb(0, 0, 0)" fill-opacity="1" d="M0,30.89L64,34.779C128,38.669,256,46.447,384,51.965C512,57.483,640,60.739,768,79.834C896,98.928,1024,133.861,1152,157.65C1280,181.439,1408,194.085,1536,201.671C1664,209.256,1792,211.781,1856,213.044L1920,214.306L1920,216L1856,216C1792,216,1664,216,1536,216C1408,216,1280,216,1152,216C1024,216,896,216,768,216C640,216,512,216,384,216C256,216,128,216,64,216L0,216Z"></path></g></g></svg>